<svg xmlns="http://www.w3.org/2000/svg" viewBox="0 0 64 64">
  <rect width="64" height="64" fill="#0a0806"/>
  <path d="M32 52c-1.2 0-2.3-.5-3.1-1.4C26.5 48 16 36.8 16 28c0-5.5 4.5-10 10-10 3 0 5.7 1.3 7.5 3.4C35.3 19.3 38 18 41 18c5.5 0 10 4.5 10 10 0 8.8-10.5 20-12.9 22.6-.8.9-1.9 1.4-3.1 1.4z" fill="#c9a84c" opacity="0.95"/>
  <path d="M32 52c-1.2 0-2.3-.5-3.1-1.4C26.5 48 16 36.8 16 28c0-5.5 4.5-10 10-10 3 0 5.7 1.3 7.5 3.4C35.3 19.3 38 18 41 18c5.5 0 10 4.5 10 10 0 8.8-10.5 20-12.9 22.6-.8.9-1.9 1.4-3.1 1.4z" fill="none" stroke="#f0d98a" stroke-width="0.5" opacity="0.4"/>
  <circle cx="28" cy="26" r="1.5" fill="#f0d98a" opacity="0.6"/>
</svg>
